PathFileType	4	(X/Y/Z)	7_coords_data.trc
DataRate	CameraRate	NumFrames	NumMarkers	Units	OrigDataRate	OrigDataStartFrame	OrigNumFrames
30.0	30.0	8	21	m	30.0	1	62
Frame#	Time	THUMB_TIP	THUMB_IP	THUMB_MCP	THUMB_CMC	INDEX_TIP	INDEX_DIP	INDEX_PIP	INDEX_MCP	MIDDLE_TIP	MIDDLE_DIP	MIDDLE_PIP	MIDDLE_MCP	RING_TIP	RING_DIP	RING_PIP	RING_MCP	PINKY_TIP	PINKY_DIP	PINKY_PIP	PINKY_MCP	WRIST
X1	Y1	Z1	X2	Y2	Z2	X3	Y3	Z3	X4	Y4	Z4	X5	Y5	Z5	X6	Y6	Z6	X7	Y7	Z7	X8	Y8	Z8	X9	Y9	Z9	X10	Y10	Z10	X11	Y11	Z11	X12	Y12	Z12	X13	Y13	Z13	X14	Y14	Z14	X15	Y15	Z15	X16	Y16	Z16	X17	Y17	Z17	X18	Y18	Z18	X19	Y19	Z19	X20	Y20	Z20	X21	Y21	Z21
0	0.0	-0.04640250015258789	-0.06014440155029297	0.9830180053710937	-0.03766379928588867	-0.03915359878540039	0.997697998046875	-0.03683480072021485	-0.024198099136352538	1.0240400390625	-0.0363760986328125	0.003817500114440918	1.04427001953125	-0.028956300735473634	0.001284600019454956	1.0116900024414062	-0.011920000076293945	0.007385379791259765	1.0028300170898437	-0.008663599967956542	0.009751199722290039	0.979135009765625	-0.04594400024414062	0.0023078498840332032	0.9825029907226562	-0.02562849998474121	0.013921500205993653	1.025449951171875	-0.01258329963684082	0.021902500152587892	1.0134000244140624	-0.007732140064239502	0.031374500274658206	0.9906510009765624	-0.04741559982299805	0.02689979934692383	0.9803690185546875	-0.032432701110839846	0.02924279975891113	1.03025	-0.01843320083618164	0.0382869987487793	1.02202001953125	-0.013698399543762207	0.04940810012817383	1.0004199829101563	-0.05151079940795898	0.04712990188598633	0.9939099731445312	0.0	0.0	0.0	-0.02144599914550781	0.05069060134887695	1.0296600341796875	-0.019945899963378907	0.06179219818115234	1.014	-0.049434600830078126	0.06126539993286133	1.0066199951171875	-0.05940119934082031	0.028698699951171875	1.0571600341796874
1	0.03333333333333333	-0.04664820098876953	-0.06077629852294922	0.9829810180664063	-0.037442798614501956	-0.03958509826660156	0.997677978515625	-0.036212699890136715	-0.024265199661254882	1.0222999877929688	-0.03665629959106445	0.006180910110473633	1.0431099853515624	-0.027269899368286134	0.0008584039807319642	1.0118499755859376	-0.010975199699401856	0.005878099918365479	1.002469970703125	-0.008985440254211425	0.0091182804107666	0.9796090087890625	-0.04610710144042969	0.00177658998966217	0.985031982421875	-0.023904800415039062	0.01603070068359375	1.0208800048828126	-0.01282069969177246	0.022701499938964843	1.0134299926757813	-0.0074816298484802245	0.030647899627685545	0.988802001953125	-0.04752320098876953	0.026187299728393554	0.9831909790039063	-0.03198209953308105	0.02912929916381836	1.02918994140625	-0.018083999633789063	0.037908100128173826	1.0221300048828126	-0.012364199638366699	0.0486692008972168	1.0018300170898438	-0.049783599853515624	0.04639699935913086	0.9924080200195312	-0.03493320083618164	0.04308660125732422	1.0354300537109375	-0.021730300903320312	0.051220001220703124	1.0294599609375	-0.020009700775146484	0.060992198944091795	1.014280029296875	-0.049606201171875	0.06168090057373047	1.005989990234375	-0.05844250106811524	0.029551799774169923	1.058449951171875
2	0.06666666666666667	-0.045933399200439456	-0.06131940078735352	0.9835120239257813	-0.036884799957275394	-0.04001409912109375	0.9980419921875	-0.035679698944091794	-0.02459269905090332	1.022530029296875	-0.03623300170898437	0.005956049919128418	1.043199951171875	-0.026964000701904297	0.0005146999955177301	1.0119299926757812	-0.010723400115966796	0.005570849895477295	1.0026300048828125	-0.008778070449829102	0.008687620162963866	0.9798590087890625	-0.04589920043945313	0.001164090037345886	0.9852990112304687	-0.023712499618530274	0.015737799644470214	1.0209299926757813	-0.012608900070190429	0.02244919967651367	1.0135499877929688	-0.007394619941711426	0.030265600204467773	0.9887550048828125	-0.0474364013671875	0.025600500106811523	0.9832789916992187	-0.031935800552368165	0.028771400451660156	1.0292099609375	-0.017958099365234376	0.03762049865722656	1.022219970703125	-0.012356300354003907	0.04831079864501953	1.0015	-0.049744701385498045	0.04584320068359375	0.9923209838867187	-0.035335800170898435	0.04238800048828125	1.0350699462890625	-0.021671100616455077	0.05086439895629883	1.0293299560546876	-0.019886699676513672	0.060547199249267575	1.0143099975585939	-0.04956840133666992	0.06117919921875	1.0058900146484375	-0.058365001678466796	0.02922369956970215	1.0585799560546876
3	0.1	-0.04565439987182617	-0.06159109878540039	0.9837730102539063	-0.036621898651123044	-0.0402318000793457	0.9982979736328125	-0.03543519973754883	-0.02480820083618164	1.0227899780273437	-0.036063499450683593	0.005789239883422851	1.0434300537109376	-0.026784400939941406	0.00015863299369812	1.0125900268554688	-0.010559599876403808	0.0051652898788452145	1.003260009765625	-0.008387940406799316	0.00811396026611328	0.98052099609375	-0.045659400939941405	0.000689527988433837	0.9854829711914063	-0.023427499771118163	0.015510299682617187	1.0211599731445313	-0.01254990005493164	0.02211720085144043	1.0137899780273438	-0.007118330001831054	0.029751300811767578	0.9887659912109374	-0.047139701843261717	0.025122299194335937	0.9833629760742187	-0.03162779998779297	0.02873579978942871	1.0298199462890625	-0.017907699584960936	0.03734749984741211	1.0223300170898437	-0.012041899681091308	0.04788010025024414	1.0018599853515624	-0.049505001068115236	0.04541510009765625	0.992448974609375	-0.03488339996337891	0.04262269973754883	1.0353199462890625	-0.021502099990844726	0.050597400665283204	1.0294599609375	-0.019687999725341798	0.060229598999023436	1.0143599853515626	-0.049344200134277344	0.060779701232910155	1.0059299926757812	-0.058219600677490234	0.028979799270629884	1.058719970703125
4	0.13333333333333333	-0.045728801727294925	-0.06173550033569336	0.9839010009765625	-0.03661669921875	-0.04043569946289063	0.9984030151367187	-0.03536270141601563	-0.0250359001159668	1.0228699951171876	-0.03593780136108399	0.005547450065612793	1.043550048828125	-0.026704099655151366	-8.544030040502502e-05	1.0126400146484376	-0.010537899971008301	0.004873280048370361	1.0033400268554689	-0.008352569580078125	0.00784910011291504	0.9804970092773437	-0.04559909820556641	0.00040066400170326205	0.985676025390625	-0.023468399047851564	0.015183699607849122	1.0215999755859375	-0.012404800415039063	0.02185689926147461	1.01402001953125	-0.007014470100402832	0.029453500747680664	0.9892050170898438	-0.046990501403808595	0.024852199554443358	0.9834530029296875	-0.03146229934692383	0.02840749931335449	1.0298900146484375	-0.017637800216674805	0.037046199798583986	1.0225	-0.011823100090026855	0.04756480026245117	1.0019500122070313	-0.04931449890136719	0.04513000106811523	0.9924749755859374	-0.03433980178833008	0.04218830108642578	1.0352900390625	-0.021281099319458006	0.050351398468017575	1.029550048828125	-0.01942329978942871	0.05996099853515625	1.0144299926757812	-0.049074298858642576	0.0605192985534668	1.005989990234375	-0.05801979827880859	0.02883300018310547	1.05868994140625
5	0.16666666666666666	-0.04625820159912109	-0.06171360015869141	0.9840670166015625	-0.0368572998046875	-0.04040919876098633	0.99839599609375	-0.03545769882202148	-0.02499650001525879	1.0229000244140625	-0.03590409851074219	0.005521009922027588	1.0435699462890624	-0.026819400787353516	-0.00010734999924898101	1.0126099853515624	-0.010558099746704101	0.004781000137329102	1.0033599853515625	-0.008364450454711915	0.007726190090179444	0.980655029296875	-0.045606201171875	0.000348500996828079	0.9857509765625	-0.0234286003112793	0.01520199966430664	1.0214600219726562	-0.012350299835205077	0.021801000595092775	1.0139400024414063	-0.0070104398727416995	0.029379100799560548	0.988864990234375	-0.04689670181274414	0.024794599533081055	0.9834400024414063	-0.031452699661254885	0.028347700119018555	1.029780029296875	-0.017563100814819335	0.03700809860229492	1.0224199829101563	-0.011779999732971192	0.04755659866333008	1.002030029296875	-0.049249900817871096	0.04514120101928711	0.9925599975585937	-0.0347958984375	0.04217390060424805	1.03525	-0.0212091007232666	0.05030889892578125	1.0295400390625	-0.0192942008972168	0.059902099609375	1.0144299926757812	-0.04900419998168945	0.060499099731445315	1.0060599975585938	-0.05795859909057617	0.028887399673461912	1.0588299560546874
6	0.2	-0.046701499938964844	-0.06159579849243164	0.9841079711914062	-0.037161300659179684	-0.04035739898681641	0.9983820190429687	-0.03563010025024414	-0.02495989990234375	1.0228699951171876	-0.0359718017578125	0.005593629837036132	1.0435699462890624	-0.026767099380493164	2.7316600084304002e-05	1.0129000244140625	-0.010632599830627441	0.004901959896087647	1.0034000244140624	-0.008392410278320312	0.007799330234527588	0.980635986328125	-0.04567110061645508	0.00048461300134658805	0.9857559814453125	-0.023372900009155272	0.01524590015411377	1.0214500122070314	-0.012359999656677246	0.021906600952148438	1.0139500122070313	-0.007038199901580809	0.029459299087524413	0.9889730224609375	-0.047009498596191406	0.024918100357055665	0.9834420166015625	-0.03131839942932129	0.028539100646972657	1.029530029296875	-0.01759040069580078	0.037124698638916015	1.0223599853515626	-0.011802900314331054	0.04765840148925781	1.0015800170898437	-0.04924259948730469	0.045291301727294925	0.9925349731445312	-0.034537498474121096	0.042280399322509765	1.0351099853515624	-0.02121820068359375	0.050388900756835935	1.029550048828125	-0.019304100036621093	0.059968898773193356	1.0144199829101563	-0.04899649810791016	0.06064690017700195	1.0060700073242188	-0.05805759811401367	0.028979900360107422	1.058739990234375
7	0.23333333333333334	-0.047015300750732424	-0.0615615005493164	0.9842210083007813	-0.037377899169921874	-0.04033319854736328	0.998468994140625	-0.035808399200439454	-0.02488909912109375	1.02297998046875	-0.03612979888916015	0.005640329837799073	1.0435899658203125	-0.026922399520874024	7.464600354433e-05	1.0128800048828126	-0.01076729965209961	0.004954470157623291	1.0035499877929688	-0.008568050384521485	0.007838990211486816	0.9807069702148438	-0.04582310104370117	0.000538848996162414	0.9858389892578125	-0.023453899383544922	0.015352499961853028	1.0213400268554687	-0.01253159999847412	0.021933700561523436	1.0139600219726563	-0.007239180088043213	0.029489599227905273	0.9890479736328125	-0.047178798675537106	0.02499020004272461	0.9835159912109375	-0.0316205997467041	0.0284818000793457	1.0296300048828124	-0.01769569969177246	0.03719400024414062	1.0222899780273438	-0.01199020004272461	0.04771829986572266	1.0015800170898437	-0.04941770172119141	0.04534349822998047	0.9926240234375	-0.0347692985534668	0.04229759979248047	1.0351300048828125	-0.021323699951171875	0.050464900970458984	1.029449951171875	-0.019510400772094726	0.06004890060424805	1.0144400024414062	-0.04912730026245117	0.06067330169677734	1.0061099853515625	-0.058109600067138674	0.029059200286865233	1.0589000244140625
